HIERARCHY
ROOT Hips
{
	OFFSET 38.052399 -3.337716 98.812698
	CHANNELS 6 Xposition Yposition Zposition Xrotation Yrotation Zrotation
	JOINT spine
	{
		OFFSET 0.000000 -0.477352 8.301041
		CHANNELS 3 Xrotation Yrotation Zrotation
		JOINT spine1
		{
			OFFSET 0.000000 -0.000002 10.456497
			CHANNELS 3 Xrotation Yrotation Zrotation
			JOINT spine2
			{
				OFFSET 0.000000 -0.000002 10.019203
				CHANNELS 3 Xrotation Yrotation Zrotation
				JOINT Neck
				{
					OFFSET 0.000000 -1.226414 25.723503
					CHANNELS 3 Xrotation Yrotation Zrotation
					JOINT Head
					{
						OFFSET 0.000000 -0.000001 7.771744
						CHANNELS 3 Xrotation Yrotation Zrotation
						End Site
						{
							OFFSET 0.000000 6.203937 18.811996
						}
					}
				}
				JOINT RightShoulder
				{
					OFFSET -4.218800 0.587437 10.820000
					CHANNELS 3 Xrotation Yrotation Zrotation
					JOINT RightArm
					{
						OFFSET 0.000000 -0.000002 14.191406
						CHANNELS 3 Xrotation Yrotation Zrotation
						JOINT RightArmRoll
						{
							OFFSET 0.000000 -0.000001 7.164078
							CHANNELS 3 Xrotation Yrotation Zrotation
							JOINT RightForeArm
							{
								OFFSET 0.000000 -0.000003 20.866501
								CHANNELS 3 Xrotation Yrotation Zrotation
								JOINT RightForeArmRoll
								{
									OFFSET 0.000000 -0.000001 8.039215
									CHANNELS 3 Xrotation Yrotation Zrotation
									JOINT RightHand
									{
										OFFSET 0.000000 -0.000003 16.132996
										CHANNELS 3 Xrotation Yrotation Zrotation
										End Site
										{
											OFFSET 0.000000 0.000000 0.100006
										}
									}
								}
							}
						}
					}
				}
				JOINT LeftShoulder
				{
					OFFSET 4.218800 0.587437 10.820000
					CHANNELS 3 Xrotation Yrotation Zrotation
					JOINT LeftArm
					{
						OFFSET 0.000000 -0.000002 14.191406
						CHANNELS 3 Xrotation Yrotation Zrotation
						JOINT LeftArmRoll
						{
							OFFSET 0.000000 -0.000001 7.164078
							CHANNELS 3 Xrotation Yrotation Zrotation
							JOINT LeftForeArm
							{
								OFFSET 0.000000 -0.000003 20.866501
								CHANNELS 3 Xrotation Yrotation Zrotation
								JOINT LeftForeArmRoll
								{
									OFFSET 0.000000 -0.000001 8.039215
									CHANNELS 3 Xrotation Yrotation Zrotation
									JOINT LeftHand
									{
										OFFSET 0.000000 -0.000003 16.132996
										CHANNELS 3 Xrotation Yrotation Zrotation
										End Site
										{
											OFFSET 0.000000 0.000000 0.100006
										}
									}
								}
							}
						}
					}
				}
			}
		}
	}
	JOINT RightUpLeg
	{
		OFFSET -7.357731 1.131810 -1.349213
		CHANNELS 3 Xrotation Yrotation Zrotation
		JOINT RightUpLegRoll
		{
			OFFSET 0.000000 -0.000003 18.916801
			CHANNELS 3 Xrotation Yrotation Zrotation
			JOINT RightLeg
			{
				OFFSET 0.000000 0.000004 -23.425598
				CHANNELS 3 Xrotation Yrotation Zrotation
				JOINT RightLegRoll
				{
					OFFSET 0.000000 -0.000004 23.502296
					CHANNELS 3 Xrotation Yrotation Zrotation
					JOINT RightFoot
					{
						OFFSET 0.000000 -0.000003 19.561707
						CHANNELS 3 Xrotation Yrotation Zrotation
						JOINT RightToeBase
						{
							OFFSET 0.000000 -0.000003 16.352600
							CHANNELS 3 Xrotation Yrotation Zrotation
							End Site
							{
								OFFSET 0.006931 0.912836 7.919434
							}
						}
					}
				}
			}
		}
	}
	JOINT LeftUpLeg
	{
		OFFSET 7.357731 1.131810 -1.349213
		CHANNELS 3 Xrotation Yrotation Zrotation
		JOINT LeftUpLegRoll
		{
			OFFSET 0.000000 -0.000003 18.916901
			CHANNELS 3 Xrotation Yrotation Zrotation
			JOINT LeftLeg
			{
				OFFSET 0.000000 -0.000004 23.425507
				CHANNELS 3 Xrotation Yrotation Zrotation
				JOINT LeftLegRoll
				{
					OFFSET 0.000000 -0.000004 23.719498
					CHANNELS 3 Xrotation Yrotation Zrotation
					JOINT LeftFoot
					{
						OFFSET 0.000000 -0.000003 19.344406
						CHANNELS 3 Xrotation Yrotation Zrotation
						JOINT LeftToeBase
						{
							OFFSET 0.000000 -0.000003 16.352600
							CHANNELS 3 Xrotation Yrotation Zrotation
							End Site
							{
								OFFSET -0.031063 0.912836 7.919434
							}
						}
					}
				}
			}
		}
	}
}
MOTION
Frames: 9
Frame Time: 0.041667
37.945396 -2.215890 98.803093 -4.062419 -0.804456 1.007748 -1.430172 0.097436 0.057883 1.142377 0.194157 0.113960 2.787455 0.195578 0.111626 26.468241 -1.402022 -1.258242 -8.898789 1.430094 -1.388909 -7.961887 -69.279606 -10.114342 -56.767707 -133.478781 -98.262209 0.000003 0.000007 0.000005 88.690300 -5.617723 -1.303559 -0.000004 0.000002 -3.000717 -5.000211 -7.998713 0.000174 13.225939 66.086800 -13.944008 -66.982525 130.158380 83.285366 -0.000002 -0.000006 0.000007 83.209790 2.382779 2.307780 -0.000001 -0.000002 3.003222 -5.000229 7.998729 -0.000163 1.029169 -175.401744 1.579636 -179.999991 0.000005 -1.118999 174.028152 -3.794355 -0.691627 -0.000000 0.000002 0.061363 68.255296 6.901715 2.159353 25.456856 -7.355622 -0.000012 0.855425 175.609491 0.524376 -0.000005 -0.000004 -1.197680 -10.495556 3.351613 1.041429 -0.000004 -0.000002 -0.143810 68.903105 -6.923875 -2.046639 25.456957 7.355613 0.000000 
37.938595 -2.222808 98.799896 -4.072240 -0.803043 0.995130 -1.428104 0.096719 0.057605 1.146516 0.192851 0.113330 2.791585 0.194266 0.111014 26.454839 -1.386041 -1.256940 -8.877822 1.416156 -1.386221 -7.924355 -69.297358 -10.073681 -56.744109 -133.549801 -98.316571 0.000005 0.000007 0.000004 88.543731 -5.704452 -1.191463 -0.000005 0.000002 -3.000723 -5.000210 -7.998712 0.000175 13.270424 66.105535 -13.990010 -66.891219 130.155238 83.398795 -0.000000 -0.000004 0.000004 83.345916 2.358734 2.341439 -0.000001 -0.000000 3.003222 -5.000231 7.998728 -0.000160 1.034060 -175.403752 1.580381 -179.999991 0.000005 -1.118998 174.020653 -3.793311 -0.692020 0.000000 0.000002 0.061391 68.250576 6.901714 2.159150 25.456854 -7.355621 -0.000012 0.869707 175.607497 0.520095 -0.000005 -0.000005 -1.197880 -10.497073 3.352895 1.041614 -0.000003 -0.000001 -0.143968 68.906589 -6.923897 -2.046625 25.456959 7.355614 -0.000000 
37.942497 -2.226580 98.808403 -4.084058 -0.801168 0.982317 -1.425259 0.095780 0.057461 1.152206 0.190948 0.113034 2.797275 0.192358 0.110742 26.435588 -1.365280 -1.256988 -8.853472 1.397100 -1.384375 -7.883202 -69.316066 -10.029054 -56.735687 -133.618881 -98.341822 0.000005 0.000004 0.000003 88.433854 -5.777906 -1.106540 -0.000006 0.000001 -3.000719 -5.000209 -7.998714 0.000175 13.314393 66.124817 -14.035313 -66.794606 130.134638 83.508741 -0.000001 -0.000005 0.000003 83.496351 2.328991 2.381240 0.000000 -0.000001 3.003223 -5.000227 7.998730 -0.000160 1.041235 -175.405760 1.581610 -179.999991 0.000005 -1.118999 174.013358 -3.792268 -0.692398 -0.000000 0.000002 0.061410 68.245932 6.901724 2.158941 25.456860 -7.355621 -0.000013 0.885902 175.605516 0.515364 -0.000005 -0.000005 -1.198070 -10.498884 3.353849 1.041840 -0.000003 -0.000001 -0.144065 68.910482 -6.923873 -2.046677 25.456955 7.355613 -0.000001 
37.925095 -2.255289 98.811592 -4.098090 -0.798912 0.968522 -1.421593 0.094620 0.057398 1.159536 0.188477 0.112947 2.804604 0.189885 0.110688 26.409854 -1.337906 -1.258241 -8.824415 1.371162 -1.383056 -7.834375 -69.337731 -9.976086 -56.748961 -133.691008 -98.344786 0.000006 0.000006 0.000003 88.355293 -5.841452 -1.042720 -0.000009 0.000000 -3.000722 -5.000212 -7.998711 0.000176 13.357974 66.145027 -14.080006 -66.690008 130.100241 83.612266 -0.000002 -0.000005 0.000006 83.660720 2.294342 2.426271 0.000001 -0.000004 3.003221 -5.000232 7.998732 -0.000161 1.050649 -175.407782 1.583258 -179.999991 0.000005 -1.119996 174.006036 -3.792218 -0.692882 0.000000 0.000002 0.061415 68.241315 6.901732 2.158532 25.456860 -7.355620 -0.000013 0.904643 175.602538 0.510031 -0.000004 -0.000005 -1.198260 -10.500697 3.354655 1.042115 -0.000004 -0.000002 -0.144113 68.914703 -6.923869 -2.046713 25.456957 7.355613 0.000000 
37.926994 -2.255630 98.806389 -4.113987 -0.796301 0.953957 -1.417230 0.093264 0.057414 1.168266 0.185501 0.113065 2.813344 0.186909 0.110842 26.378566 -1.305000 -1.260554 -8.791432 1.339423 -1.382221 -7.779247 -69.361671 -9.916257 -56.780954 -133.765184 -98.326898 0.000006 0.000009 0.000002 88.305829 -5.895009 -0.998337 -0.000007 0.000001 -3.000712 -5.000210 -7.998712 0.000175 13.400980 66.165907 -14.123905 -66.580534 130.052525 83.712328 -0.000003 -0.000003 0.000003 83.837642 2.255304 2.476414 -0.000001 -0.000006 3.003221 -5.000230 7.998731 -0.000160 1.062014 -175.410787 1.585242 -179.999991 0.000005 -1.119996 173.998755 -3.792168 -0.694361 0.000000 0.000002 0.061408 68.236704 6.901777 2.158029 25.456856 -7.355622 -0.000012 0.925514 175.599574 0.504180 -0.000005 -0.000004 -1.198460 -10.502407 3.355335 1.042427 -0.000003 -0.000001 -0.144118 68.919150 -6.923912 -2.046741 25.456959 7.355613 -0.000000 
37.927998 -2.270498 98.808281 -4.131458 -0.793355 0.938824 -1.412272 0.091734 0.057510 1.178176 0.182085 0.113381 2.823254 0.183494 0.111201 26.342645 -1.267628 -1.263781 -8.755275 1.302974 -1.381828 -7.719347 -69.387619 -9.851266 -56.829288 -133.839729 -98.290739 0.000005 0.000004 0.000003 88.283282 -5.938493 -0.972347 -0.000006 0.000000 -3.000714 -5.000210 -7.998718 0.000172 13.443288 66.187450 -14.166897 -66.467077 129.992625 83.809071 -0.000002 -0.000004 0.000006 84.025322 2.212532 2.531079 0.000002 -0.000005 3.003222 -5.000227 7.998730 -0.000163 1.075000 -175.413806 1.587525 -179.999991 0.000006 -1.119996 173.991515 -3.792116 -0.694840 -0.000000 0.000002 0.061394 68.232169 6.901757 2.157608 25.456858 -7.355621 -0.000013 0.948074 175.596582 0.497885 -0.000005 -0.000005 -1.198640 -10.504117 3.355897 1.042775 -0.000003 -0.000002 -0.144087 68.923897 -6.923897 -2.046840 25.456957 7.355614 -0.000000 
37.911594 -2.275858 98.805290 -4.150144 -0.790098 0.923337 -1.406852 0.090054 0.057687 1.189036 0.178290 0.113893 2.834113 0.179701 0.111759 26.302895 -1.226847 -1.267756 -8.716706 1.262868 -1.381844 -7.656194 -69.415192 -9.782759 -56.891682 -133.912948 -98.238706 0.000005 0.000007 0.000006 88.285454 -5.971908 -0.963341 -0.000007 0.000000 -3.000709 -5.000208 -7.998717 0.000173 13.484660 66.209368 -14.208780 -66.351702 129.921359 83.903936 0.000001 -0.000007 0.000005 84.222277 2.166572 2.589744 -0.000002 -0.000001 3.003220 -5.000229 7.998726 -0.000162 1.089300 -175.416825 1.590042 -179.999991 0.000005 -1.121007 173.984330 -3.792067 -0.695315 -0.000000 0.000002 0.061375 68.227654 6.901770 2.157094 25.456856 -7.355622 -0.000012 0.971899 175.592634 0.491198 -0.000005 -0.000005 -1.198830 -10.506024 3.356328 1.043161 -0.000004 -0.000001 -0.144026 68.928848 -6.923861 -2.046925 25.456957 7.355613 0.000000 
37.924099 -2.285182 98.807304 -4.169752 -0.786556 0.907702 -1.401060 0.088247 0.057944 1.200616 0.174179 0.114593 2.845692 0.175596 0.112509 26.260431 -1.183726 -1.272355 -8.676516 1.220199 -1.382230 -7.591199 -69.443831 -9.712291 -56.967466 -133.982002 -98.175753 0.000006 0.000006 0.000002 88.310193 -5.995344 -0.970097 -0.000007 -0.000002 -3.000712 -5.000210 -7.998712 0.000172 13.524952 66.231484 -14.249404 -66.233301 129.840831 83.994490 0.000002 -0.000004 0.000004 84.426910 2.117994 2.651899 0.000001 -0.000004 3.003218 -5.000231 7.998727 -0.000162 1.104614 -175.420841 1.592719 -179.999991 0.000005 -1.121007 173.977199 -3.793008 -0.695891 -0.000000 0.000002 0.061355 68.223133 6.901787 2.156577 25.456858 -7.355620 -0.000013 0.996557 175.588673 0.484208 -0.000005 -0.000005 -1.199010 -10.508133 3.356650 1.043578 -0.000002 -0.000001 -0.143942 68.933821 -6.923895 -2.046920 25.456959 7.355614 -0.000000 
37.927197 -2.296138 98.809898 -4.189941 -0.782751 0.892127 -1.395031 0.086337 0.058280 1.212675 0.169818 0.115478 2.857752 0.171241 0.113446 26.215979 -1.139326 -1.277432 -8.635443 1.176030 -1.382961 -7.525879 -69.473153 -9.641516 -57.052628 -134.046342 -98.102178 0.000004 0.000006 0.000005 88.355341 -6.009095 -0.991431 -0.000004 0.000001 -3.000708 -5.000208 -7.998716 0.000176 13.563982 66.253709 -14.288619 -66.116156 129.751055 84.085052 0.000004 -0.000005 0.000003 84.637635 2.067351 2.716923 0.000001 -0.000006 3.003222 -5.000227 7.998736 -0.000162 1.120630 -175.423874 1.595539 -179.999991 0.000005 -1.121007 173.970150 -3.793952 -0.697459 -0.000000 0.000002 0.061338 68.218720 6.901809 2.155958 25.456853 -7.355619 -0.000013 1.021614 175.583700 0.476967 -0.000004 -0.000005 -1.199190 -10.510439 3.356871 1.044020 -0.000002 -0.000001 -0.143840 68.938786 -6.923892 -2.047008 25.456959 7.355615 -0.000001 
